PathFileType	4	(X/Y/Z)	C:/Users/beibeiliu/ov580/test_trc/User3\out7_training_dense_right.trc
DataRate	CameraRate	NumFrames	NumMarkers	Units	OrigDataRate	OrigDataStartFrame	OrigNumFrames
120	120	10	19	mm	120	438	500
Frame#	Time	ThumbCMC			ThumbMCP			ThumbIP			ThumbTip			IndexMCP			IndexPIP			IndexTip			MiddleMCP			MiddlePIP			MiddleTip			RingMCP			RingPIP			RingTip			PinkyMCP			PinkyPIP			PinkyTip			BackHand1			BackHand2			BackHand3	
		X0	Y0	Z0	X1	Y1	Z1	X2	Y2	Z2	X3	Y3	Z3	X4	Y4	Z4	X5	Y5	Z5	X6	Y6	Z6	X7	Y7	Z7	X8	Y8	Z8	X9	Y9	Z9	X10	Y10	Z10	X11	Y11	Z11	X12	Y12	Z12	X13	Y13	Z13	X14	Y14	Z14	X15	Y15	Z15	X16	Y16	Z16	X17	Y17	Z17	X18	Y18	Z18	
437	3.64167	152.41	84.8256	41.8141	146.599	93.2087	10.7541	145.972	100.065	-16.8512	154.707	90.934	-43.5458	202.293	103.184	-12.2784	186.777	104.101	-43.6961	160.807	90.6068	-35.5513	211.986	86.8546	-22.1083	189	84.5446	-50.3035	159.143	66.9003	-34.2075	213.012	66.4264	-24.7189	194.873	60.031	-44.563	165.936	51.2803	-30.0425	212.682	42.7893	-17.1873	195.083	43.5084	-37.8871	164.172	42.9687	-23.9336	210.446	52.9411	32.6963	197.026	40.7388	59.2202	190.602	75.6785	51.4908	
438	3.65	169.889	82.7135	40.0208	164.833	94.0776	9.01979	167.487	101.314	-21.8655	175.34	84.9581	-41.4229	224.15	96.4553	-15.5481	210.641	95.424	-44.3314	177.058	89.8407	-34.6712	228.655	73.8036	-22.9396	210.15	76.3828	-51.3868	173.674	66.6418	-35.2198	227.29	53.5837	-22.1409	203.862	52.9678	-46.1448	178.526	53.097	-31.0223	221.504	33.8428	-17.1662	202.655	35.473	-39.0657	175.733	38.7331	-26.5756	221.393	44.9025	31.6831	206.178	33.1665	56.5745	203.996	70.4205	49.7495	
439	3.65833	187.039	83.8072	37.0908	186.721	92.6238	4.18602	188.479	97.7199	-25.9912	191.237	80.6005	-46.5922	241.756	79.5604	-18.3688	227.899	86.3635	-48.6515	197.134	82.0262	-39.3467	242.183	57.6883	-26.5351	224.092	66.3063	-54.2806	187.571	60.2994	-35.2256	235.398	38.8786	-27.8537	215.133	45.7507	-48.9642	184.623	47.7862	-28.1697	225.381	24.3751	-19.7977	205.311	27.4844	-41.842	180.049	38.6204	-27.6459	227.171	32.2618	32.0978	209.633	24.7785	58.3369	218.934	65.5324	45.8038	
440	3.66667	205.541	81.1694	36.8565	204.618	91.111	5.97713	206.515	93.3354	-26.3918	203.738	73.8858	-47.4562	255.248	62.7387	-22.8178	243.174	70.5577	-52.048	210.527	76.1308	-37.769	250.102	41.787	-32.0527	232.889	52.6838	-57.4379	195.715	58.2641	-35.0517	237.141	26.9645	-31.3638	217.444	33.725	-51.1973	192.254	48.5137	-28.3205	222.11	11.4196	-26.4527	201.854	23.3054	-42.6503	185.836	36.7146	-29.5106	230.922	19.2273	26.574	215.96	15.5064	53.4342	232.716	49.553	42.6877	
441	3.675	227.604	69.0267	33.7883	229.761	81.5236	3.02337	229.109	86.1204	-27.9449	217.556	69.055	-46.0021	262.462	41.8896	-26.3168	249.703	54.6642	-53.936	226.81	72.5934	-36.8589	252.705	29.0051	-38.0874	232.244	42.8658	-59.4302	208.345	62.3891	-35.3595	232.668	15.1536	-36.0649	212.52	32.3739	-53.002	197.654	47.969	-30.4329	213.752	5.49974	-30.6074	199.086	24.336	-43.2108	185.797	42.3373	-22.3545	231.222	6.5272	22.3683	219.283	8.73938	49.0716	242.55	34.329	41.885	
442	3.68333	242.99	58.2004	39.3653	249.851	73.5642	7.88518	247.19	77.8502	-20.543	232.253	69.0816	-45.1258	268.084	28.9069	-32.2228	256.342	49.2882	-52.7275	238.697	67.1269	-30.4691	253.163	17.7235	-37.6462	240.924	42.6104	-58.2445	220.227	61.5819	-33.0914	232.312	10.6946	-34.0114	219.508	33.6566	-51.7116	208.497	52.1623	-27.7808	211.209	6.65231	-28.0258	201.104	29.159	-40.6846	191.785	47.4622	-18.9303	228.985	-1.57003	22.816	214.993	2.40325	50.3581	246.555	18.9308	37.7903	
443	3.69167	257.625	50.2397	40.1832	264.164	63.7775	11.1926	264.496	71.6987	-17.0818	246.88	65.0538	-40.1561	273.598	19.2741	-24.2334	265.996	41.7282	-50.1583	255.085	62.8433	-24.318	259.175	12.407	-36.2149	248.062	39.2085	-54.9034	232.085	58.6021	-30.2192	234.714	8.52075	-34.4433	226.653	34.7359	-49.8888	220.908	54.4119	-25.4964	214.234	7.28194	-30.0427	212.388	32.8174	-38.1744	206.064	48.3848	-13.1213	227.078	-6.72398	22.882	217.971	-4.00711	48.489	250.374	9.58765	40.8409	
444	3.7	265.671	45.3152	48.0567	273.079	58.0311	17.5607	275.055	65.5863	-9.61267	260.651	62.0321	-31.0444	280.618	12.6467	-24.2507	280.613	38.8908	-44.2114	268.469	57.6109	-19.8754	266.146	7.48835	-34.0056	260.326	35.1774	-51.5139	245.655	58.1787	-23.9647	243.276	5.23807	-34.1399	237.543	29.1707	-47.6112	229.27	50.9121	-18.5302	220.56	5.03246	-23.9406	220.353	33.0995	-35.2585	215.073	46.1318	-8.18549	235.772	-10.6685	22.4584	222.445	-4.08619	53.5886	255.47	4.70296	45.9572	
445	3.70833	270.422	40.4944	53.6645	283.205	53.4219	22.9401	285.914	57.5012	-7.01856	272.79	56.5811	-28.5069	290.6	6.19684	-17.6369	294.922	28.4015	-37.8803	278.449	52.0025	-20.3326	274.888	1.40588	-29.2539	273.251	26.7228	-48.2768	252.813	51.0212	-23.772	254.218	1.85981	-27.782	245.743	23.8486	-45.1048	240.297	48.5143	-23.5701	231.348	2.37081	-22.7129	231.673	29.9343	-33.6696	223.934	44.1883	-7.84373	236.509	-12.4083	27.6882	223.774	-8.05588	51.8661	258.129	0.323699	52.4283	
446	3.71667	270.603	33.1042	53.9122	287.647	50.4433	30.0869	294.727	54.9042	-3.27893	279.193	50.997	-22.0789	294.106	1.08123	-9.35532	294.963	24.8917	-35.0458	284.353	46.3237	-17.9493	278.821	-4.7636	-26.1777	280.509	19.0729	-45.6071	263.73	49.0883	-22.3537	258.114	-1.87665	-26.5991	254.188	19.4392	-43.6142	246.13	44.9281	-22.8647	235.303	-0.136416	-22.7694	235.892	26.1701	-32.4097	228.472	42.4599	-5.6633	237.687	-14.723	31.3209	224.947	-10.6167	55.2686	261.454	-2.66321	55.8547	
